<svg width="974" height="547" viewBox="0 0 974 547" fill="none" xmlns="http://www.w3.org/2000/svg">
<path d="M547.902 436.613C546.082 436.613 544.303 437.153 542.79 438.164C541.277 439.175 540.098 440.612 539.402 442.293C538.705 443.974 538.523 445.824 538.878 447.608C539.233 449.393 540.109 451.032 541.396 452.319C542.683 453.606 544.322 454.482 546.107 454.837C547.891 455.192 549.741 455.01 551.422 454.313C553.103 453.617 554.54 452.438 555.551 450.925C556.562 449.412 557.102 447.633 557.102 445.814C557.102 443.373 556.132 441.033 554.407 439.308C552.682 437.583 550.342 436.613 547.902 436.613ZM547.902 451.475C546.782 451.475 545.687 451.143 544.756 450.521C543.825 449.899 543.099 449.015 542.671 447.98C542.242 446.946 542.13 445.807 542.349 444.709C542.567 443.611 543.106 442.602 543.898 441.81C544.69 441.018 545.699 440.479 546.797 440.261C547.895 440.042 549.034 440.154 550.068 440.583C551.103 441.011 551.987 441.737 552.609 442.668C553.231 443.599 553.563 444.694 553.563 445.814V445.814C553.563 447.315 552.967 448.755 551.905 449.817C550.843 450.879 549.403 451.475 547.902 451.475Z" fill="#E4E4E4"/>
<path d="M512.516 429.536H547.901V464.558C547.901 465.781 547.416 466.953 546.551 467.818C545.687 468.682 544.514 469.168 543.292 469.168H517.125C515.903 469.168 514.73 468.682 513.866 467.818C513.001 466.953 512.516 465.781 512.516 464.558V429.536Z" fill="#E4E4E4"/>
<path d="M630.283 470H98.7173C98.5201 469.973 98.3379 469.856 98.2056 469.671C98.0732 469.487 98 469.248 98 469C98 468.752 98.0732 468.513 98.2056 468.329C98.3379 468.144 98.5201 468.027 98.7173 468H630.283C630.48 468.027 630.662 468.144 630.794 468.329C630.927 468.513 631 468.752 631 469C631 469.248 630.927 469.487 630.794 469.671C630.662 469.856 630.48 469.973 630.283 470Z" fill="#CACACA"/>
<path d="M169.288 455L166 471.4L227.146 492L232 467.795L169.288 455Z" fill="#FFB6B6"/>
<path d="M176 452.183L169.457 483.615L169.456 483.616C168.35 488.928 165.117 493.596 160.469 496.592C155.821 499.589 150.138 500.669 144.67 499.594L144 499.463L154.714 448L176 452.183Z" fill="#2F2E41"/>
<path d="M238.5 231C261.42 231 280 212.42 280 189.5C280 166.58 261.42 148 238.5 148C215.58 148 197 166.58 197 189.5C197 212.42 215.58 231 238.5 231Z" fill="#FEB8B8"/>
<path d="M278.144 153.591C271.913 143.457 262.161 135.99 250.763 132.627L245.647 136.366V131.511C242.91 131.091 240.14 130.93 237.372 131.028L232.958 135.028V131.36C226.423 132.174 220.127 134.335 214.468 137.707C208.808 141.078 203.907 145.588 200.074 150.952C190.489 164.793 188.871 184.048 198.299 198C200.886 190.034 204.028 182.559 206.616 174.593C208.65 174.871 210.712 174.881 212.748 174.623L215.897 167.264L216.777 174.312C226.536 173.46 241.012 171.59 250.263 169.877L249.364 164.47L254.746 168.963C257.581 168.309 259.264 167.716 259.125 167.263C266.006 178.374 274.427 185.471 281.307 196.582C283.921 180.915 286.929 167.888 278.144 153.591Z" fill="#2F2E41"/>
<path d="M252 461C311.094 461 359 447.569 359 431C359 414.431 311.094 401 252 401C192.906 401 145 414.431 145 431C145 447.569 192.906 461 252 461Z" fill="#2F2E41"/>
<path d="M328 296.371C326.572 287.792 325.1 279.049 321.108 271.321C318.484 266.259 314.32 261.435 308.705 260.434C307.599 260.335 306.513 260.084 305.476 259.687C303.831 258.896 281.725 246.292 278.212 244.097C275.195 242.212 270.433 238.723 268.031 238.723C265.616 238.67 256.353 240.823 220.199 238C214.117 240.438 208.228 243.33 202.582 246.651C202.465 246.575 165.057 266.638 163.651 266.586C160.99 266.474 158.516 268.176 156.99 270.319C155.465 272.462 154.749 275.116 154 277.681C162.171 295.855 169.646 314.051 177.818 332.225C178.2 332.91 178.404 333.679 178.409 334.463C178.244 335.277 177.897 336.043 177.392 336.702C173.385 343.131 173.512 351.217 173.95 358.773C174.388 366.33 174.93 374.311 171.549 381.084C170.629 382.944 169.433 384.646 168.559 386.505C166.51 390.717 165.77 404.186 166.966 408.711L316.856 413C313.634 404.152 328 296.371 328 296.371Z" fill="#9505FC"/>
<path d="M141.249 333.089C140.95 335.234 140.92 337.407 141.16 339.559L143.307 370.145C143.509 373.027 143.707 375.903 143.98 378.779C144.495 384.359 145.265 389.895 146.22 395.424C146.242 396.209 146.576 396.953 147.151 397.493C147.725 398.034 148.492 398.326 149.284 398.306C158.737 400.29 168.504 400.211 178.151 399.67C192.873 398.855 230.536 397.314 232.837 394.349C235.138 391.385 233.797 386.59 230.797 384.193C227.797 381.796 178.094 375.952 178.094 375.952C178.58 372.135 180.045 368.54 181.435 364.916C183.931 358.489 186.262 351.851 186.307 344.966C186.352 338.081 183.736 330.842 178.049 326.897C173.371 323.659 167.348 323.058 161.648 323.192C157.5 323.31 150.333 322.325 146.545 323.933C143.547 325.242 141.809 330.178 141.249 333.089Z" fill="#FBBEBE"/>
<path d="M328.757 402.615C331.246 401.665 333.99 402.009 336.659 402.368C345.248 403.541 353.964 404.745 361.926 408.176C365.664 409.777 369.222 411.914 371.749 415.059C373.99 417.892 375.3 421.361 376.541 424.776L379.412 432.64C380.633 435.594 381.474 438.691 381.916 441.857C382.814 451.268 376.377 460.14 368.281 465.029C360.185 469.919 350.654 471.659 341.369 473.483C332.084 475.307 322.762 477.325 313.515 479.463C309.202 480.582 304.826 481.444 300.411 482.042C290.513 483.162 280.167 481.511 270.763 484.785C267.025 486.094 263.354 488.037 259.477 488.942C256.9 489.484 254.295 489.881 251.673 490.13L233.874 492.163C230.254 492.647 226.611 492.926 222.96 493C215.186 493 207.538 491.159 199.989 489.319C199.187 489.178 198.423 488.869 197.748 488.414C196.552 487.472 196.29 485.805 196.118 484.296C195.356 477.613 194.689 470.923 194.117 464.226C193.938 462.051 193.803 459.696 194.992 457.865C196.487 455.624 199.403 454.92 202.064 454.486C213.349 452.64 224.781 451.847 236.213 452.116C240.555 447.774 247.717 447.751 253.406 445.389C255.499 444.428 257.525 443.326 259.469 442.092C269.645 436.156 281.017 432.563 292.757 431.575C295.057 431.505 297.341 431.179 299.568 430.604C303.97 429.236 307.986 425.513 312.508 426.425C313.068 424.878 313.457 422.807 314.749 421.746C315.389 421.2 316.184 420.834 316.775 420.251C318.023 418.988 318.135 416.999 317.948 415.235C317.761 413.471 317.342 411.662 317.798 409.942C317.988 409.291 318.267 408.67 318.628 408.096C320.863 404.229 324.249 402.241 328.757 402.615Z" fill="#2F2E41"/>
<path d="M153.779 277.774C153.05 278.537 152.484 279.442 152.117 280.432C146.066 294.072 142.491 308.681 141.561 323.575C141.577 324.301 141.41 325.02 141.074 325.664C140.744 326.093 140.375 326.491 139.974 326.855C139.624 327.27 139.359 327.75 139.195 328.267C139.03 328.784 138.969 329.329 139.015 329.87C139.061 330.41 139.213 330.937 139.462 331.419C139.711 331.901 140.053 332.33 140.468 332.68C140.536 332.737 140.606 332.792 140.678 332.845C141.913 330.52 144.87 329.76 147.499 329.558C160.084 328.562 172.377 334.418 185 333.976C184.109 330.899 182.828 327.941 182.102 324.827C178.89 310.997 186.901 295.94 181.99 282.619C181.009 279.953 179.37 277.333 176.787 276.165C175.717 275.733 174.598 275.437 173.455 275.283C170.266 274.706 163.916 272.243 160.832 273.231C159.694 273.599 159.245 274.669 158.302 275.316C156.868 276.231 154.967 276.568 153.779 277.774Z" fill="#9505FC"/>
<path d="M328.455 323.934C324.667 322.324 317.5 323.31 313.352 323.192C307.652 323.059 301.629 323.66 296.951 326.9C291.264 330.847 288.648 338.091 288.693 344.981C288.738 351.87 291.069 358.513 293.565 364.945C294.955 368.571 296.42 372.168 296.906 375.987C296.906 375.987 247.203 381.835 244.203 384.234C241.203 386.633 239.862 391.431 242.163 394.397C244.464 397.364 316.263 400.342 325.716 398.357C326.508 398.377 327.275 398.084 327.849 397.544C328.424 397.003 328.758 396.258 328.78 395.473C329.735 389.941 330.505 384.401 331.02 378.816C331.293 375.939 331.491 373.061 331.693 370.177L333.84 339.57C334.08 337.417 334.05 335.242 333.751 333.096C333.191 330.183 331.453 325.244 328.455 323.934Z" fill="#FBBEBE"/>
<path d="M316.698 275.316C315.755 274.669 315.306 273.599 314.168 273.231C311.084 272.243 304.734 274.706 301.545 275.283C300.402 275.437 299.283 275.733 298.213 276.165C295.63 277.333 293.991 279.953 293.01 282.619C288.099 295.94 296.11 310.997 292.898 324.827C292.172 327.941 290.891 330.899 290 333.976C302.623 334.418 314.916 328.562 327.501 329.558C330.13 329.76 333.087 330.52 334.322 332.845C334.394 332.792 334.464 332.737 334.532 332.68C334.947 332.33 335.289 331.901 335.538 331.419C335.787 330.937 335.939 330.41 335.985 329.87C336.031 329.329 335.97 328.784 335.805 328.267C335.641 327.75 335.376 327.27 335.026 326.855C334.625 326.491 334.256 326.093 333.926 325.664C333.59 325.02 333.423 324.301 333.439 323.575C332.509 308.681 328.934 294.072 322.883 280.432C322.516 279.442 321.95 278.537 321.221 277.774C320.033 276.568 318.132 276.231 316.698 275.316Z" fill="#9505FC"/>
<path d="M338 478.473L335.803 495L271 494.393L274.243 470L338 478.473Z" fill="#FFB6B6"/>
<path d="M354 475.84L346.897 529L346.221 528.911C340.704 528.181 335.704 525.302 332.321 520.906C328.939 516.51 327.45 510.957 328.183 505.47L328.183 505.468L332.522 473L354 475.84Z" fill="#2F2E41"/>
<path d="M185.742 410.559C185.742 411.309 184.57 410.559 184.463 409.757C183.642 403.693 178.85 398.693 173.267 396.265C167.684 393.837 161.325 393.709 155.279 394.286C146.136 395.155 135.872 398.671 132.529 407.253C131.738 409.259 124.326 427.123 125.05 431.14C126.998 441.858 134.297 451.025 143.142 457.374C151.987 463.723 162.322 467.515 172.631 470.936C199.887 479.963 227.851 486.67 256.228 490.986C260.825 491.683 265.468 492.328 269.872 493.811C273.812 495.138 277.499 497.124 281.351 498.684C290.308 502.295 299.944 503.585 309.49 504.852C311.117 505.063 312.983 505.212 314.185 504.103C315.738 502.658 315.224 500.138 314.782 498.062C313.162 490.167 314.521 481.95 318.596 475.006C320.195 472.308 322.273 469.542 321.97 466.42C321.612 462.777 318 460.199 314.402 459.614C310.804 459.029 307.147 459.891 303.533 460.363C302.295 460.649 300.997 460.52 299.839 459.996C299.302 459.632 298.815 459.198 298.391 458.707C295.902 456.296 292.717 454.739 289.292 454.258C285.868 453.777 282.379 454.398 279.328 456.031C277.992 456.781 275.971 455.109 274.581 454.48L258.884 447.344C240.851 439.152 222.729 430.922 203.651 425.735C202.128 425.435 200.682 424.831 199.396 423.959C198.448 423.209 197.769 422.193 196.896 421.358C194.992 419.551 192.34 418.831 190.059 417.55C187.777 416.268 185.219 413.13 185.742 410.559Z" fill="#2F2E41"/>
<path d="M226.5 400C232.851 400 238 395.075 238 389C238 382.925 232.851 378 226.5 378C220.149 378 215 382.925 215 389C215 395.075 220.149 400 226.5 400Z" fill="#FBBEBE"/>
<path d="M251.5 400C257.851 400 263 395.075 263 389C263 382.925 257.851 378 251.5 378C245.149 378 240 382.925 240 389C240 395.075 245.149 400 251.5 400Z" fill="#FBBEBE"/>
<path d="M320.241 414H166.759C164.967 413.998 163.249 413.283 161.982 412.011C160.715 410.74 160.002 409.016 160 407.218V313.782C160.002 311.984 160.715 310.26 161.982 308.989C163.249 307.717 164.967 307.002 166.759 307H320.241C322.033 307.002 323.751 307.717 325.018 308.989C326.285 310.26 326.998 311.984 327 313.782V407.218C326.998 409.016 326.285 410.74 325.018 412.011C323.751 413.283 322.033 413.998 320.241 414Z" fill="#3F3D56"/>
<path d="M243.5 365C245.985 365 248 362.985 248 360.5C248 358.015 245.985 356 243.5 356C241.015 356 239 358.015 239 360.5C239 362.985 241.015 365 243.5 365Z" fill="#E9E9E9"/>
<path d="M792.998 227H593.002C591.941 226.999 590.924 226.586 590.173 225.853C589.423 225.12 589.001 224.127 589 223.09V186.257H590.601V223.09C590.601 223.712 590.855 224.308 591.305 224.748C591.755 225.188 592.365 225.435 593.002 225.436H792.998C793.635 225.435 794.245 225.188 794.695 224.748C795.145 224.308 795.399 223.712 795.399 223.09V186H797V223.09C796.999 224.127 796.577 225.12 795.827 225.853C795.076 226.586 794.059 226.999 792.998 227Z" fill="#3F3D56"/>
<path d="M866 185H395V187H866V185Z" fill="#3F3D56"/>
<path d="M395.5 199C402.956 199 409 192.956 409 185.5C409 178.044 402.956 172 395.5 172C388.044 172 382 178.044 382 185.5C382 192.956 388.044 199 395.5 199Z" fill="#9505FC"/>
<path d="M535.5 199C542.956 199 549 192.956 549 185.5C549 178.044 542.956 172 535.5 172C528.044 172 522 178.044 522 185.5C522 192.956 528.044 199 535.5 199Z" fill="#9505FC"/>
<path d="M630.5 240C637.956 240 644 233.732 644 226C644 218.268 637.956 212 630.5 212C623.044 212 617 218.268 617 226C617 233.732 623.044 240 630.5 240Z" fill="#3F3D56"/>
<path d="M702.5 240C709.956 240 716 233.732 716 226C716 218.268 709.956 212 702.5 212C695.044 212 689 218.268 689 226C689 233.732 695.044 240 702.5 240Z" fill="#CCCCCC"/>
<path d="M667.5 199C674.956 199 681 192.956 681 185.5C681 178.044 674.956 172 667.5 172C660.044 172 654 178.044 654 185.5C654 192.956 660.044 199 667.5 199Z" fill="#9505FC"/>
<path d="M863.5 199C870.956 199 877 192.956 877 185.5C877 178.044 870.956 172 863.5 172C856.044 172 850 178.044 850 185.5C850 192.956 856.044 199 863.5 199Z" fill="#9505FC"/>
<path d="M796 199C803.732 199 810 192.956 810 185.5C810 178.044 803.732 172 796 172C788.268 172 782 178.044 782 185.5C782 192.956 788.268 199 796 199Z" fill="#9505FC"/>
<path d="M643 59H617V77H643V59Z" fill="#3F3D56"/>
<path d="M408 59H383V77H408V59Z" fill="#9505FC"/>
<path d="M495 59H469V77H495V59Z" fill="#CCCCCC"/>
<path d="M437.805 187C437.591 187 437.387 186.914 437.236 186.762C437.085 186.609 437 186.403 437 186.187V146.064C437.001 144.987 437.426 143.954 438.18 143.192C438.934 142.43 439.957 142.001 441.024 142H480.195C480.409 142 480.613 142.086 480.764 142.238C480.915 142.391 481 142.597 481 142.813C481 143.028 480.915 143.235 480.764 143.388C480.613 143.54 480.409 143.626 480.195 143.626H441.024C440.384 143.626 439.77 143.883 439.317 144.341C438.865 144.798 438.61 145.418 438.61 146.064V186.187C438.61 186.403 438.525 186.609 438.374 186.762C438.223 186.914 438.018 187 437.805 187Z" fill="#3F3D56"/>
<path d="M482 157C489.732 157 496 150.732 496 143C496 135.268 489.732 129 482 129C474.268 129 468 135.268 468 143C468 150.732 474.268 157 482 157Z" fill="#E6E6E6"/>
<path d="M746.602 186H745V146.047C745.001 144.974 745.424 143.945 746.175 143.187C746.926 142.428 747.944 142.001 749.006 142H788V143.619H749.006C748.368 143.619 747.758 143.876 747.307 144.331C746.856 144.786 746.603 145.403 746.602 146.047V186Z" fill="#3F3D56"/>
<path d="M789.5 157C796.956 157 803 150.732 803 143C803 135.268 796.956 129 789.5 129C782.044 129 776 135.268 776 143C776 150.732 782.044 157 789.5 157Z" fill="#E6E6E6"/>
</svg>
