<svg width="150" height="150" viewBox="0 0 150 150" fill="none" xmlns="http://www.w3.org/2000/svg">
<g clip-path="url(#clip0)">
<path d="M37.871 120.791L30 25.1795L124 25.3716L115.677 120.791L77.3548 131.821L37.871 120.791Z" fill="#1B73BA"/>
<path d="M77.3549 122.587V34.2854L116.065 34.4135L109.162 113.417L77.3549 122.587Z" fill="#1C88C7"/>
<path d="M106.452 45.5719H46.9033L48.5165 57.1138H76.7741L48.9683 68.9774L50.5807 80.1351H91.5488L90.0645 95.7172L76.1934 98.4109L63.6133 95.2048L62.6453 86.3551H51.0969L52.6449 104.76L77.4192 111.621L101.162 104.119L104.194 68.1433H79.096L106.451 56.8576L106.452 45.5719Z" fill="white"/>
</g>
<defs>
<clipPath id="clip0">
<rect width="94" height="107" fill="white" transform="translate(30 25)"/>
</clipPath>
</defs>
</svg>
