<svg width="150" height="150" viewBox="0 0 150 150" fill="none" xmlns="http://www.w3.org/2000/svg">
<g clip-path="url(#clip0)">
<path d="M141.397 81.1473L81.1453 141.396C77.6775 144.866 72.0497 144.866 68.5776 141.396L56.066 128.885L71.9376 113.013C75.6258 114.259 79.8553 113.423 82.7954 110.483C85.7494 107.524 86.5796 103.259 85.3031 99.5585L100.599 84.262C104.3 85.5369 108.57 84.7122 111.525 81.7516C115.656 77.6224 115.656 70.9299 111.525 66.798C107.393 62.6656 100.701 62.6656 96.5668 66.798C93.4596 69.9084 92.692 74.4716 94.265 78.2995L80.0003 92.5641L79.9987 55.0254C81.0328 54.5142 81.9772 53.8388 82.7954 53.0255C86.9262 48.8963 86.9262 42.2033 82.7954 38.0682C78.6635 33.9379 71.9678 33.9379 67.8418 38.0682C63.7109 42.2033 63.7109 48.8958 67.8418 53.025C68.8317 54.0154 70.0082 54.7998 71.3031 55.3327V93.2213C70.0063 93.7507 68.8292 94.5355 67.8418 95.529C64.712 98.6545 63.9595 103.247 65.5632 107.09L49.9174 122.737L8.60367 81.426C5.13211 77.9529 5.13211 72.3245 8.60367 68.854L68.8568 8.60407C72.3257 5.13359 77.9524 5.13359 81.4256 8.60407L141.397 68.5742C144.867 72.0458 144.867 77.6774 141.397 81.1473" fill="#DE4C36"/>
</g>
<defs>
<clipPath id="clip0">
<rect width="138" height="138" fill="white" transform="matrix(1 0 0 -1 6 144)"/>
</clipPath>
</defs>
</svg>
