<svg width="150" height="150" viewBox="0 0 150 150" fill="none" xmlns="http://www.w3.org/2000/svg">
<path d="M28.0002 95.7397L38.8837 89.1306C40.9834 92.8661 42.8934 96.0267 47.4748 96.0267C51.8664 96.0267 54.6351 94.3029 54.6351 87.598V42H68V87.7876C68 101.678 59.8859 108 48.0477 108C37.3564 108 31.1502 102.444 28 95.7386" fill="#F7DF1E"/>
<path d="M75 94.254L86.0013 87.9096C88.8973 92.6203 92.6613 96.0806 99.3201 96.0806C104.918 96.0806 108.488 93.2927 108.488 89.4476C108.488 84.8335 104.821 83.1992 98.6443 80.5086L95.2675 79.0656C85.5193 74.933 79.0529 69.7423 79.0529 58.7837C79.0529 48.6904 86.7736 41 98.8379 41C107.427 41 113.604 43.9802 118.043 51.7665L107.523 58.495C105.207 54.3619 102.698 52.728 98.8381 52.728C94.8811 52.728 92.3717 55.2273 92.3717 58.495C92.3717 62.5324 94.8811 64.1669 100.671 66.6664L104.049 68.1082C115.534 73.0109 122 78.0089 122 89.2553C122 101.368 112.446 108 99.6099 108C87.0636 108 78.9566 102.041 75.0002 94.254" fill="#F7DF1E"/>
</svg>
