<svg width="150" height="150" viewBox="0 0 150 150" fill="none" xmlns="http://www.w3.org/2000/svg">
<path d="M74.0967 11L77.4838 17.4285C78.2453 18.6148 79.0703 19.6649 80.042 20.6428C82.8909 23.4856 85.5464 26.5197 87.9903 29.7244C93.7295 37.3393 97.6005 45.7957 100.365 54.9415C102.023 60.5284 102.923 66.2595 102.991 72.0548C103.268 89.3805 97.3903 104.257 85.5392 116.622C83.6115 118.582 81.529 120.381 79.3123 122C78.1383 122 77.583 121.09 77.0991 120.253C76.2179 118.699 75.6315 116.994 75.3698 115.223C74.9534 113.127 74.6797 111.031 74.8146 108.866V107.889C74.7194 107.68 73.6842 11.493 74.0967 11V11Z" fill="#599636"/>
<path d="M74.2273 11.1372C74.0879 10.858 73.9485 11.0694 73.8091 11.205C73.8768 12.601 73.3909 13.8454 72.6302 15.034C71.7937 16.2146 70.6865 17.12 69.5753 18.0932C63.4017 23.4459 58.5425 29.9113 54.6512 37.1425C49.4734 46.8746 46.8049 57.3047 46.0481 68.2851C45.7016 72.2457 47.2987 86.2216 48.5454 90.254C51.9468 100.959 58.0566 109.93 65.9707 117.715C67.9144 119.59 69.9935 121.329 72.1442 123C72.7696 123 72.8373 122.442 72.9807 122.027C73.2548 121.139 73.4638 120.233 73.606 119.315L75 108.889L74.2273 11.1372Z" fill="#6CAC48"/>
<path d="M77.3166 125.688C77.4517 124.128 78.1931 122.833 79 121.543C78.1892 121.203 77.5869 120.529 77.1158 119.776C76.7097 119.063 76.3734 118.312 76.112 117.534C75.1699 114.679 74.9691 111.684 74.6988 108.767V107C74.3629 107.273 74.2934 109.582 74.2934 109.925C74.097 113.008 73.6919 116.074 73.0811 119.101C72.8803 120.326 72.7452 121.546 72 122.635C72 122.771 72 122.908 72.0656 123.11C73.278 126.714 73.61 130.384 73.8147 134.124V135.488C73.8147 137.119 73.749 136.775 75.0888 137.321C75.6293 137.524 76.2317 137.594 76.7722 138C77.1776 138 77.2432 137.661 77.2432 137.388L77.0425 135.145V128.89C76.9768 127.798 77.1776 126.714 77.3127 125.692L77.3166 125.688Z" fill="#C2BFBF"/>
</svg>
