<svg width="150" height="150" viewBox="0 0 150 150" fill="none" xmlns="http://www.w3.org/2000/svg">
<path d="M69.5943 16.5234C72.558 14.8277 76.4181 14.82 79.3792 16.5234C94.2762 24.9379 109.178 33.3392 124.072 41.7587C126.874 43.3362 128.748 46.4528 128.719 49.6796V100.304C128.74 103.665 126.681 106.856 123.725 108.397C108.877 116.766 94.0369 125.144 79.1915 133.512C76.1665 135.241 72.2289 135.108 69.2985 133.237C64.8471 130.657 60.388 128.091 55.9361 125.514C55.0264 124.972 54.001 124.54 53.3586 123.658C53.9265 122.893 54.9417 122.798 55.7667 122.464C57.6248 121.873 59.3314 120.925 61.0384 120.005C61.4701 119.71 61.9971 119.823 62.4109 120.087C66.2174 122.269 69.9902 124.514 73.8095 126.675C74.6243 127.145 75.4493 126.521 76.1457 126.133C90.7161 117.901 105.304 109.7 119.872 101.466C120.412 101.206 120.711 100.633 120.667 100.042C120.677 83.3421 120.669 66.6392 120.672 49.9392C120.734 49.2685 120.345 48.6519 119.739 48.3775C104.942 40.0477 90.1534 31.7051 75.3594 23.3732C75.1031 23.197 74.7995 23.1025 74.4884 23.1021C74.1774 23.1016 73.8735 23.1952 73.6167 23.3706C58.8227 31.7051 44.0364 40.0553 29.2425 48.3847C28.638 48.6596 28.2323 49.266 28.3043 49.9392C28.3068 66.6392 28.3043 83.3421 28.3043 100.045C28.2786 100.333 28.342 100.622 28.4858 100.874C28.6297 101.125 28.8471 101.326 29.1088 101.45C33.0567 103.688 37.0096 105.91 40.96 108.14C43.1855 109.338 45.918 110.049 48.37 109.132C50.5337 108.356 52.0505 106.149 52.0092 103.852C52.0296 87.2498 51.9989 70.6447 52.0245 54.0447C51.9704 53.3077 52.6698 52.6987 53.3867 52.7681C55.2836 52.7553 57.183 52.7426 59.0798 52.7732C59.8716 52.7553 60.4165 53.5489 60.3186 54.2915C60.3109 70.9992 60.339 87.7072 60.3058 104.415C60.3109 108.868 58.4809 113.713 54.3607 115.892C49.2848 118.52 43.011 117.963 37.9964 115.442C33.6552 113.276 29.5124 110.72 25.2483 108.4C22.2851 106.866 20.2362 103.663 20.2571 100.305V49.6796C20.226 46.386 22.1744 43.2128 25.0631 41.6583C39.9085 33.2834 54.7514 24.9021 69.5943 16.5234Z" fill="#8CC84B"/>
<path d="M82.5455 51.5915C89.0203 51.1749 95.9517 51.3447 101.778 54.5332C106.289 56.9766 108.79 62.1047 108.87 67.1145C108.744 67.7902 108.037 68.163 107.392 68.1166C105.513 68.114 103.634 68.1421 101.756 68.1038C100.959 68.1345 100.496 67.4 100.395 66.6957C99.8557 64.2987 98.548 61.9247 96.291 60.7685C92.8263 59.0345 88.8091 59.1217 85.0311 59.1579C82.2731 59.3043 79.3073 59.543 76.9707 61.1643C75.1769 62.3923 74.632 64.8715 75.2722 66.8681C75.8759 68.3017 77.5314 68.7643 78.8859 69.1906C86.6888 71.2306 94.9573 71.0277 102.611 73.7123C105.78 74.8068 108.88 76.9345 109.965 80.2511C111.383 84.6962 110.761 90.0094 107.598 93.5779C105.032 96.5145 101.295 98.1128 97.5685 98.9808C92.6105 100.086 87.4652 100.114 82.4302 99.6234C77.6957 99.0838 72.7688 97.8404 69.1138 94.6157C65.9884 91.903 64.4619 87.6762 64.6134 83.5966C64.6496 82.9077 65.3358 82.4272 65.9961 82.4838C67.8878 82.4685 69.7796 82.4634 71.6713 82.4864C72.4269 82.4323 72.9871 83.0851 73.0259 83.797C73.3749 86.0809 74.2335 88.4779 76.2258 89.8319C80.0706 92.3115 84.8949 92.1417 89.2974 92.2111C92.9447 92.0494 97.0389 92.0004 100.015 89.5906C101.586 88.2162 102.051 85.9166 101.627 83.9383C101.167 82.2681 99.419 81.4898 97.918 80.9808C90.2152 78.5451 81.8542 79.4289 74.2259 76.6745C71.129 75.5804 68.1343 73.5119 66.9445 70.3315C65.2843 65.8302 66.045 60.2626 69.5403 56.8145C72.9484 53.3847 77.8681 52.0638 82.5455 51.5911V51.5915Z" fill="#8CC84B"/>
</svg>
