<svg width="150" height="150" viewBox="0 0 150 150" fill="none" xmlns="http://www.w3.org/2000/svg">
<path d="M129.574 85.6588C128.914 83.6691 127.186 82.2833 124.952 81.9507C123.898 81.7941 122.692 81.8609 121.264 82.154C118.775 82.6655 116.929 82.8602 115.581 82.8979C120.668 74.3445 124.803 64.5907 127.184 55.4091C131.034 40.5626 128.977 33.7992 126.573 30.7399C120.21 22.6424 110.928 18.2923 99.7293 18.1592C93.7554 18.0865 88.511 19.2613 85.7752 20.1061C83.228 19.6585 80.4892 19.4085 77.6154 19.3623C72.2285 19.2767 67.4688 20.4464 63.4018 22.8504C61.1503 22.092 57.5366 21.0229 53.3635 20.3407C43.5485 18.7357 35.638 19.9863 29.8518 24.0577C22.8453 28.9873 19.5973 37.5522 20.198 49.5144C20.3888 53.3124 22.5218 64.868 25.8802 75.8271C27.8104 82.1262 29.8686 87.3571 31.9977 91.3759C35.0171 97.0745 38.2479 100.43 41.8749 101.636C43.9078 102.31 47.6014 102.783 51.4862 99.5598C51.9786 100.154 52.6356 100.744 53.5074 101.292C54.6147 101.988 55.9687 102.556 57.3209 102.893C62.194 104.106 66.7585 103.803 70.6528 102.102C70.6769 102.792 70.6953 103.451 70.7108 104.02C70.7366 104.943 70.7624 105.849 70.7963 106.695C71.0271 112.419 71.4181 116.87 72.5765 119.984C72.6401 120.155 72.7256 120.416 72.8158 120.693C73.3938 122.455 74.3601 125.406 76.8188 127.717C79.3647 130.11 82.4443 130.844 85.2647 130.844C86.6793 130.844 88.0289 130.66 89.2127 130.407C93.4322 129.506 98.2245 128.134 101.691 123.217C104.969 118.569 106.562 111.569 106.851 100.538C106.888 100.226 106.922 99.9283 106.955 99.6446L107.024 99.0617L107.796 99.1293L107.995 99.1426C112.293 99.3377 117.548 98.43 120.775 96.9367C123.326 95.758 131.498 91.4606 129.574 85.6588" fill="black"/>
<path d="M122.225 86.787C109.446 89.4127 108.568 85.1033 108.568 85.1033C122.06 65.1621 127.7 39.8496 122.833 33.6545C109.554 16.7554 86.5681 24.7477 86.1844 24.9548L86.061 24.9771C83.5362 24.4549 80.711 24.1442 77.5352 24.0924C71.7533 23.9982 67.3671 25.6023 64.0387 28.1163C64.0387 28.1163 23.0336 11.2904 24.941 49.2778C25.3466 57.359 36.5701 110.426 49.9566 94.3971C54.8494 88.5358 59.5773 83.5801 59.5773 83.5801C61.9251 85.1337 64.7361 85.9263 67.6829 85.6417L67.9119 85.4483C67.8406 86.1758 67.8732 86.8876 68.0034 87.7303C64.5548 91.5681 65.5684 92.2417 58.6745 93.6554C51.6985 95.0874 55.7964 97.6365 58.4721 98.3033C61.7158 99.1109 69.2199 100.255 74.2902 93.1854L74.0882 93.9922C75.4392 95.0703 76.3879 101.004 76.2289 106.383C76.0699 111.762 75.9638 115.455 77.0282 118.34C78.0933 121.225 79.1542 127.715 88.2172 125.781C95.7896 124.164 99.7139 119.976 100.26 112.988C100.647 108.021 101.524 108.756 101.579 104.314L102.283 102.212C103.093 95.4786 102.412 93.3061 107.077 94.3166L108.211 94.4159C111.644 94.5712 116.139 93.8655 118.777 92.6444C124.456 90.0192 127.825 85.6353 122.224 86.787H122.225" fill="#336791"/>
<path d="M66.4389 52.8917C65.2874 52.732 64.2445 52.8797 63.7168 53.2777C63.4204 53.5016 63.3284 53.7609 63.3035 53.9394C63.2373 54.4123 63.5699 54.9353 63.7744 55.2049C64.3528 55.9685 65.1976 56.4932 66.0337 56.6087C66.1549 56.6259 66.2756 56.6336 66.3955 56.6336C67.7899 56.6336 69.0579 55.552 69.1696 54.7538C69.3092 53.7541 67.8522 53.0877 66.4389 52.8921V52.8917ZM104.588 52.9233C104.478 52.1397 103.078 51.9163 101.75 52.1003C100.423 52.2844 99.1364 52.881 99.2438 53.6663C99.3298 54.2771 100.437 55.3196 101.748 55.3196C101.858 55.3196 101.97 55.3124 102.083 55.2965C102.958 55.1758 103.6 54.6224 103.905 54.3036C104.369 53.8174 104.638 53.2756 104.588 52.9233" fill="white"/>
<path d="M126.478 86.4887C125.99 85.0212 124.422 84.5491 121.816 85.0849C114.08 86.6753 111.309 85.5737 110.4 84.9065C116.413 75.7818 121.36 64.7517 124.029 54.4607C125.293 49.5859 125.991 45.0587 126.048 41.3686C126.111 37.3185 125.419 34.3423 123.991 32.5242C118.232 25.1949 109.78 21.2634 99.549 21.1556C92.5155 21.0768 86.5729 22.8696 85.4209 23.3738C82.9949 22.7729 80.3502 22.404 77.4708 22.3569C72.1908 22.2717 67.6267 23.5309 63.848 26.0975C62.2066 25.4889 57.9647 24.0385 52.7771 23.206C43.8087 21.768 36.6819 22.8577 31.5961 26.4463C25.5276 30.7288 22.726 38.3838 23.2687 49.1982C23.4513 52.8365 25.5328 64.0292 28.8173 74.7482C33.1408 88.8564 37.8407 96.843 42.7856 98.4861C43.3644 98.6782 44.0317 98.8126 44.7677 98.8126C46.5716 98.8126 48.7832 98.0029 51.0841 95.2475C53.8907 91.894 56.7938 88.622 59.79 85.4354C61.7339 86.4746 63.8695 87.055 66.0536 87.1132C66.0579 87.1701 66.0635 87.227 66.0686 87.2835C65.6927 87.7301 65.3245 88.1831 64.9643 88.6424C63.451 90.5559 63.136 90.9544 58.2646 91.9533C56.8789 92.2383 53.1986 92.9937 53.1445 95.5634C53.086 98.371 57.4951 99.5501 57.9974 99.675C59.7479 100.112 61.4344 100.327 63.0428 100.327C66.9542 100.327 70.3964 99.0463 73.1473 96.5687C73.0627 106.578 73.4816 116.44 74.6882 119.445C75.6764 121.905 78.0904 127.917 85.7157 127.917C86.8346 127.917 88.0661 127.787 89.4209 127.498C97.3791 125.799 100.835 122.295 102.172 114.571C102.887 110.443 104.115 100.586 104.692 95.2989C105.911 95.6776 107.48 95.851 109.176 95.8505C112.713 95.8505 116.795 95.102 119.354 93.9186C122.23 92.5884 127.419 89.3246 126.478 86.4887V86.4887ZM107.526 50.7603C107.5 52.3212 107.284 53.7383 107.055 55.2174C106.809 56.8082 106.555 58.453 106.491 60.4495C106.427 62.3926 106.671 64.4127 106.907 66.3665C107.383 70.3125 107.871 74.375 105.98 78.3835C105.666 77.8291 105.386 77.2561 105.142 76.6677C104.907 76.1002 104.397 75.1886 103.69 73.9269C100.94 69.0153 94.5015 57.5135 97.7976 52.8202C98.7795 51.4233 101.271 49.9869 107.526 50.7603V50.7603ZM99.9443 24.3162C109.111 24.5178 116.363 27.9336 121.497 34.4681C125.434 39.4803 121.098 62.2865 108.546 81.9615C108.42 81.8016 108.293 81.6422 108.165 81.4834L108.006 81.2857C111.25 75.95 110.616 70.6707 110.051 65.9903C109.819 64.0694 109.6 62.2552 109.656 60.551C109.713 58.7449 109.953 57.1955 110.185 55.6976C110.47 53.8517 110.76 51.9416 110.68 49.6899C110.74 49.4537 110.764 49.1746 110.733 48.8434C110.528 46.6842 108.053 40.222 103.009 34.3731C100.249 31.1739 96.2254 27.5938 90.731 25.1791C93.0943 24.6912 96.3259 24.2362 99.9443 24.3162V24.3162ZM48.6491 93.2308C46.1139 96.267 44.3634 95.6849 43.7876 95.494C40.0364 94.2477 35.6837 86.3505 31.8462 73.8276C28.5255 62.9918 26.5851 52.0956 26.4312 49.0402C25.9465 39.3771 28.2982 32.6427 33.4214 29.0237C41.759 23.1346 55.4669 26.6595 60.9751 28.4472C60.896 28.5251 60.8135 28.5978 60.7353 28.677C51.6964 37.7692 51.9109 53.3034 51.9332 54.2531C51.9323 54.6195 51.9633 55.1382 52.0054 55.8517C52.1609 58.4645 52.4505 63.3273 51.6771 68.8342C50.9587 73.9517 52.5425 78.9604 56.0217 82.5765C56.3787 82.9469 56.754 83.2994 57.1462 83.6328C55.5976 85.2848 52.2318 88.9381 48.6491 93.2308V93.2308ZM58.308 80.3942C55.5039 77.4796 54.2303 73.4257 54.8134 69.2708C55.6298 63.4536 55.3286 58.3871 55.1666 55.6651C55.1438 55.2841 55.1236 54.9503 55.112 54.6871C56.4325 53.5208 62.5516 50.2553 66.9155 51.2512C68.9067 51.7053 70.1202 53.056 70.6246 55.3792C73.2354 67.4069 70.9701 72.4199 69.1499 76.4486C68.7748 77.2784 68.4203 78.0629 68.1178 78.8744L67.8832 79.5018C67.2894 81.088 66.7368 82.5628 66.3943 83.9632C63.4132 83.9546 60.5132 82.6861 58.308 80.3938V80.3942ZM58.7657 96.6149C57.8951 96.3984 57.1122 96.0222 56.6529 95.7102C57.0366 95.5304 57.7194 95.2856 58.9036 95.0425C64.6343 93.8677 65.5195 93.0382 67.4522 90.594C67.8952 90.0333 68.3975 89.3982 69.0932 88.6244L69.0941 88.6235C70.13 87.468 70.604 87.664 71.4634 88.0192C72.1599 88.306 72.8384 89.1756 73.1134 90.1326C73.2436 90.5846 73.3896 91.4423 72.9114 92.1099C68.8741 97.7405 62.9908 97.6682 58.7657 96.6149V96.6149ZM88.7574 124.414C81.7466 125.91 79.2643 122.347 77.6285 118.274C76.5728 115.644 76.0537 103.786 76.422 90.6911C76.4267 90.5169 76.4018 90.3487 76.3536 90.1904C76.3106 89.8777 76.2451 89.5685 76.1577 89.2651C75.6103 87.3597 74.2761 85.7659 72.6755 85.105C72.0396 84.8427 70.8725 84.3612 69.47 84.7186C69.7691 83.4911 70.2877 82.1048 70.8502 80.6039L71.0861 79.9726C71.3516 79.2609 71.6851 78.5234 72.0374 77.7428C73.9422 73.528 76.5509 67.7549 73.7196 54.7128C72.6592 49.8277 69.1177 47.4421 63.7492 47.9964C60.5308 48.3281 57.5862 49.6214 56.1175 50.3631C55.8017 50.5224 55.5129 50.6764 55.2431 50.8262C55.653 45.9044 57.2016 36.7061 62.9946 30.8863C66.6423 27.2227 71.4999 25.4132 77.4184 25.5108C89.0801 25.7008 96.5584 31.6618 100.779 36.6294C104.416 40.9098 106.385 45.2217 107.171 47.5474C101.26 46.9487 97.2408 48.1106 95.2032 51.0124C90.7701 57.3244 97.6283 69.5751 100.924 75.4629C101.529 76.5419 102.051 77.4745 102.215 77.8708C103.288 80.4618 104.678 82.1917 105.692 83.4543C106.003 83.8412 106.305 84.2165 106.534 84.5444C104.744 85.0584 101.529 86.2461 101.822 92.1827C101.586 95.1615 99.9052 109.108 99.0515 114.035C97.9244 120.545 95.5194 122.97 88.7574 124.414V124.414ZM118.021 91.0579C116.19 91.9041 113.127 92.5388 110.217 92.6753C107.003 92.8251 105.367 92.3166 104.982 92.0038C104.802 88.3043 106.184 87.9178 107.647 87.5086C107.877 87.4444 108.101 87.3815 108.318 87.3062C108.452 87.4153 108.6 87.5236 108.761 87.6297C111.344 89.328 115.952 89.5112 122.457 88.1737L122.528 88.1596C121.651 88.9766 120.15 90.0731 118.021 91.0579Z" fill="white"/>
</svg>
