<svg width="150" height="150" viewBox="0 0 150 150" fill="none" xmlns="http://www.w3.org/2000/svg">
<path d="M131.302 75.4616C131.302 67.9558 121.902 60.8427 107.491 56.4317C110.817 41.7435 109.339 30.0577 102.826 26.3164C101.325 25.4388 99.5699 25.0231 97.653 25.0231V30.1732C98.7154 30.1732 99.5699 30.381 100.286 30.7736C103.427 32.575 104.789 39.4341 103.727 48.2562C103.473 50.4271 103.057 52.7134 102.549 55.046C98.0226 53.9375 93.0803 53.083 87.8841 52.5287C84.7663 48.2562 81.5331 44.3763 78.2767 40.9814C85.8055 33.9838 92.8725 30.1501 97.6761 30.1501V25C91.3251 25 83.0111 29.5265 74.6047 37.3787C66.1983 29.5727 57.8843 25.0924 51.5333 25.0924V30.2425C56.3138 30.2425 63.4039 34.0531 70.9327 41.0045C67.6994 44.3994 64.4662 48.2562 61.3946 52.5287C56.1753 53.083 51.233 53.9375 46.7065 55.0691C46.1753 52.7596 45.7827 50.5195 45.5056 48.3717C44.4201 39.5496 45.7596 32.6905 48.8774 30.866C49.5702 30.4503 50.4709 30.2656 51.5333 30.2656V25.1155C49.5933 25.1155 47.8381 25.5312 46.3139 26.4088C39.8243 30.1501 38.3694 41.8128 41.7181 56.4548C27.3533 60.8889 18 67.9789 18 75.4616C18 82.9673 27.3995 90.0804 41.8105 94.4914C38.4848 109.18 39.9629 120.865 46.4756 124.607C47.9767 125.484 49.7319 125.9 51.6718 125.9C58.0228 125.9 66.3369 121.373 74.7433 113.521C83.1497 121.327 91.4637 125.808 97.8147 125.808C99.7546 125.808 101.51 125.392 103.034 124.514C109.524 120.773 110.979 109.11 107.63 94.4684C121.948 90.0573 131.302 82.9442 131.302 75.4616ZM101.233 60.0575C100.378 63.0367 99.3158 66.1083 98.1149 69.1798C97.1681 67.3323 96.175 65.4847 95.0895 63.6372C94.0272 61.7896 92.8956 59.9882 91.7639 58.233C95.0434 58.718 98.2073 59.3185 101.233 60.0575ZM90.6554 84.6532C88.854 87.7709 87.0065 90.727 85.0896 93.4753C81.6485 93.7755 78.1613 93.9372 74.6509 93.9372C71.1636 93.9372 67.6763 93.7755 64.2584 93.4984C62.3415 90.7501 60.4708 87.8171 58.6695 84.7225C56.9143 81.6971 55.3208 78.6255 53.8658 75.5308C55.2977 72.4362 56.9143 69.3415 58.6464 66.3161C60.4478 63.1984 62.2953 60.2423 64.2122 57.494C67.6532 57.1938 71.1405 57.0321 74.6509 57.0321C78.1382 57.0321 81.6254 57.1938 85.0434 57.4709C86.9603 60.2192 88.8309 63.1522 90.6323 66.2468C92.3875 69.2722 93.981 72.3438 95.436 75.4385C93.981 78.5331 92.3875 81.6278 90.6554 84.6532ZM98.1149 81.6509C99.362 84.7456 100.424 87.8402 101.302 90.8425C98.2766 91.5815 95.0896 92.2051 91.787 92.6901C92.9187 90.9118 94.0503 89.0873 95.1127 87.2167C96.175 85.3691 97.1681 83.4985 98.1149 81.6509ZM74.6971 106.293C72.5493 104.076 70.4015 101.605 68.2768 98.9025C70.3553 98.9949 72.48 99.0642 74.6278 99.0642C76.7987 99.0642 78.9465 99.018 81.0481 98.9025C78.9696 101.605 76.8218 104.076 74.6971 106.293ZM57.5147 92.6901C54.2353 92.2051 51.0714 91.6046 48.046 90.8656C48.9005 87.8864 49.9628 84.8148 51.1637 81.7433C52.1106 83.5908 53.1037 85.4384 54.1891 87.286C55.2746 89.1335 56.3831 90.9349 57.5147 92.6901ZM74.5816 44.6304C76.7294 46.8474 78.8772 49.3185 81.0019 52.0206C78.9234 51.9282 76.7987 51.8589 74.6509 51.8589C72.48 51.8589 70.3322 51.9051 68.2306 52.0206C70.3091 49.3185 72.4569 46.8474 74.5816 44.6304ZM57.4917 58.233C56.36 60.0113 55.2284 61.8358 54.166 63.7064C53.1037 65.554 52.1106 67.4016 51.1637 69.2491C49.9166 66.1545 48.8543 63.0598 47.9767 60.0575C51.0021 59.3416 54.1891 58.718 57.4917 58.233ZM36.5911 87.1474C28.4156 83.6601 23.127 79.0874 23.127 75.4616C23.127 71.8357 28.4156 67.2399 36.5911 63.7757C38.5772 62.9212 40.7481 62.1591 42.9883 61.4432C44.3047 65.9697 46.0368 70.681 48.1846 75.5077C46.0599 80.3114 44.3509 84.9996 43.0576 89.503C40.7712 88.7871 38.6003 88.0019 36.5911 87.1474ZM49.016 120.149C45.8751 118.348 44.5125 111.489 45.5749 102.667C45.8289 100.496 46.2446 98.2097 46.7527 95.8771C51.2792 96.9857 56.2215 97.8402 61.4177 98.3944C64.5355 102.667 67.7687 106.547 71.025 109.942C63.4962 116.939 56.4293 120.773 51.6256 120.773C50.5864 120.75 49.7088 120.542 49.016 120.149ZM103.796 102.551C104.882 111.374 103.542 118.233 100.424 120.057C99.7315 120.473 98.8309 120.658 97.7685 120.658C92.9879 120.658 85.8979 116.847 78.3691 109.896C81.6024 106.501 84.8356 102.644 87.9072 98.3713C93.1265 97.8171 98.0687 96.9626 102.595 95.8309C103.126 98.1635 103.542 100.404 103.796 102.551ZM112.688 87.1474C110.701 88.0019 108.531 88.764 106.29 89.4799C104.974 84.9534 103.242 80.2421 101.094 75.4154C103.219 70.6117 104.928 65.9235 106.221 61.4201C108.507 62.136 110.678 62.9212 112.711 63.7757C120.886 67.263 126.175 71.8357 126.175 75.4616C126.152 79.0874 120.863 83.6832 112.688 87.1474Z" fill="#6398D7"/>
<path d="M74.6277 86.0158C80.4566 86.0158 85.1819 81.2905 85.1819 75.4615C85.1819 69.6326 80.4566 64.9073 74.6277 64.9073C68.7988 64.9073 64.0735 69.6326 64.0735 75.4615C64.0735 81.2905 68.7988 86.0158 74.6277 86.0158Z" fill="#6398D7"/>
</svg>
