<svg width="150" height="150" viewBox="0 0 150 150" fill="none" xmlns="http://www.w3.org/2000/svg">
<path d="M106.308 43.972C109.713 44.7642 112.807 46.5472 115.2 49.096C116.518 50.4755 117.663 52.0108 118.608 53.668C118.652 53.848 112.472 58 108.724 60.316C108.588 60.408 108.048 59.82 107.436 58.916C106.751 57.7391 105.78 56.7549 104.611 56.0554C103.443 55.3559 102.117 54.9639 100.756 54.916C96.448 54.62 93.672 56.876 93.692 60.648C93.6548 61.5747 93.8661 62.4945 94.304 63.312C95.252 65.272 97.012 66.448 102.54 68.844C112.716 73.224 117.084 76.112 119.78 80.216C121.304 82.8091 122.242 85.704 122.53 88.6979C122.817 91.6918 122.447 94.7124 121.444 97.548C120.066 100.658 117.881 103.342 115.115 105.322C112.349 107.302 109.104 108.506 105.716 108.808C102.115 109.221 98.476 109.183 94.884 108.696C89.382 107.792 84.3136 105.151 80.42 101.16C78.9488 99.5034 77.7034 97.6594 76.716 95.676C77.1312 95.3672 77.5683 95.0891 78.024 94.844C78.656 94.484 81.048 93.108 83.304 91.8L87.4 89.4L88.256 90.648C89.6978 92.7098 91.533 94.4661 93.656 95.816C95.8002 96.9921 98.2289 97.5494 100.671 97.4258C103.114 97.3022 105.474 96.5025 107.488 95.116C108.527 94.1032 109.177 92.7571 109.323 91.3134C109.469 89.8697 109.103 88.4207 108.288 87.22C107.184 85.64 104.928 84.312 98.516 81.532C93.4882 79.8367 88.9088 77.0266 85.12 73.312C83.3157 71.2559 81.9832 68.8298 81.216 66.204C80.6487 63.2127 80.565 60.1498 80.968 57.132C81.7207 53.6594 83.5228 50.5021 86.1301 48.088C88.7374 45.6739 92.0238 44.1197 95.544 43.636C99.1286 43.2077 102.757 43.3209 106.308 43.972ZM72.936 49.904L72.98 55.72H54.46V108.312H41.4V55.732H22.88V50.02C22.8308 48.0639 22.8842 46.1065 23.04 44.156C23.108 44.064 34.368 44.02 48.02 44.044L72.864 44.112L72.936 49.904Z" fill="#007ACC"/>
</svg>
