<svg width="158" height="71" viewBox="0 0 158 71" fill="none" xmlns="http://www.w3.org/2000/svg">
<path d="M79.464 27.776C79.448 28.128 79.312 28.424 79.056 28.664C78.816 28.888 78.528 29 78.192 29C77.824 29 77.52 28.888 77.28 28.664C77.056 28.424 76.944 28.128 76.944 27.776V13.424C76.944 13.072 77.064 12.784 77.304 12.56C77.544 12.32 77.856 12.2 78.24 12.2C78.56 12.2 78.84 12.32 79.08 12.56C79.336 12.784 79.464 13.072 79.464 13.424V27.776ZM91.1424 29.24C89.9264 29.24 88.7904 29.024 87.7344 28.592C86.6784 28.144 85.7504 27.528 84.9504 26.744C84.1664 25.944 83.5504 25.024 83.1024 23.984C82.6544 22.944 82.4304 21.816 82.4304 20.6C82.4304 19.384 82.6544 18.256 83.1024 17.216C83.5504 16.176 84.1664 15.264 84.9504 14.48C85.7504 13.68 86.6784 13.064 87.7344 12.632C88.7904 12.184 89.9264 11.96 91.1424 11.96C91.9264 11.96 92.6864 12.048 93.4224 12.224C94.1584 12.4 94.8224 12.656 95.4144 12.992C95.6224 13.104 95.7744 13.256 95.8704 13.448C95.9664 13.624 96.0144 13.8 96.0144 13.976C96.0144 14.312 95.9024 14.608 95.6784 14.864C95.4704 15.104 95.2064 15.224 94.8864 15.224C94.7744 15.224 94.6544 15.208 94.5264 15.176C94.4144 15.144 94.3104 15.104 94.2144 15.056C93.7664 14.832 93.2864 14.664 92.7744 14.552C92.2624 14.424 91.7184 14.36 91.1424 14.36C89.9904 14.36 88.9504 14.64 88.0224 15.2C87.0944 15.744 86.3584 16.488 85.8144 17.432C85.2864 18.376 85.0224 19.432 85.0224 20.6C85.0224 21.752 85.2864 22.808 85.8144 23.768C86.3584 24.712 87.0944 25.464 88.0224 26.024C88.9504 26.568 89.9904 26.84 91.1424 26.84C91.7024 26.84 92.2944 26.776 92.9184 26.648C93.5424 26.504 94.0704 26.32 94.5024 26.096L94.3104 26.744V22.184L94.6944 22.52H91.5504C91.1984 22.52 90.9024 22.408 90.6624 22.184C90.4384 21.96 90.3264 21.672 90.3264 21.32C90.3264 20.968 90.4384 20.68 90.6624 20.456C90.9024 20.232 91.1984 20.12 91.5504 20.12H95.7024C96.0384 20.12 96.3184 20.24 96.5424 20.48C96.7824 20.704 96.9024 20.992 96.9024 21.344V26.672C96.9024 26.928 96.8384 27.144 96.7104 27.32C96.5824 27.496 96.4384 27.64 96.2784 27.752C95.5584 28.2 94.7584 28.56 93.8784 28.832C93.0144 29.104 92.1024 29.24 91.1424 29.24ZM115.365 20.6C115.365 21.816 115.165 22.952 114.765 24.008C114.365 25.048 113.797 25.96 113.061 26.744C112.341 27.528 111.485 28.144 110.493 28.592C109.501 29.024 108.413 29.24 107.229 29.24C106.061 29.24 104.981 29.024 103.989 28.592C102.997 28.144 102.133 27.528 101.397 26.744C100.677 25.96 100.117 25.048 99.7174 24.008C99.3334 22.952 99.1414 21.816 99.1414 20.6C99.1414 19.384 99.3334 18.256 99.7174 17.216C100.117 16.16 100.677 15.24 101.397 14.456C102.133 13.672 102.997 13.064 103.989 12.632C104.981 12.184 106.061 11.96 107.229 11.96C108.413 11.96 109.501 12.184 110.493 12.632C111.485 13.064 112.341 13.672 113.061 14.456C113.797 15.24 114.365 16.16 114.765 17.216C115.165 18.256 115.365 19.384 115.365 20.6ZM112.773 20.6C112.773 19.416 112.533 18.352 112.053 17.408C111.589 16.464 110.941 15.72 110.109 15.176C109.277 14.632 108.317 14.36 107.229 14.36C106.157 14.36 105.205 14.632 104.373 15.176C103.541 15.72 102.893 16.464 102.429 17.408C101.965 18.336 101.733 19.4 101.733 20.6C101.733 21.784 101.965 22.848 102.429 23.792C102.893 24.736 103.541 25.48 104.373 26.024C105.205 26.568 106.157 26.84 107.229 26.84C108.317 26.84 109.277 26.568 110.109 26.024C110.941 25.48 111.589 24.736 112.053 23.792C112.533 22.848 112.773 21.784 112.773 20.6ZM119.751 29C119.367 29 119.031 28.888 118.743 28.664C118.455 28.424 118.311 28.128 118.311 27.776V13.424C118.311 13.072 118.431 12.784 118.671 12.56C118.911 12.32 119.199 12.2 119.535 12.2H126.303C127.167 12.2 127.959 12.416 128.679 12.848C129.399 13.264 129.975 13.848 130.407 14.6C130.855 15.336 131.079 16.184 131.079 17.144C131.079 17.784 130.951 18.4 130.695 18.992C130.439 19.568 130.095 20.08 129.663 20.528C129.231 20.976 128.743 21.312 128.199 21.536L127.935 21.08C128.431 21.256 128.863 21.512 129.231 21.848C129.599 22.168 129.887 22.552 130.095 23C130.319 23.432 130.439 23.928 130.455 24.488C130.503 24.984 130.543 25.4 130.575 25.736C130.623 26.056 130.687 26.32 130.767 26.528C130.847 26.736 130.991 26.896 131.199 27.008C131.487 27.168 131.663 27.408 131.727 27.728C131.807 28.048 131.743 28.336 131.535 28.592C131.391 28.784 131.207 28.912 130.983 28.976C130.775 29.024 130.559 29.032 130.335 29C130.111 28.952 129.919 28.888 129.759 28.808C129.503 28.648 129.239 28.424 128.967 28.136C128.711 27.832 128.503 27.416 128.343 26.888C128.183 26.36 128.103 25.664 128.103 24.8C128.103 24.4 128.039 24.056 127.911 23.768C127.783 23.48 127.607 23.248 127.383 23.072C127.159 22.88 126.895 22.744 126.591 22.664C126.287 22.568 125.951 22.52 125.583 22.52H120.495L120.831 22.04V27.776C120.831 28.128 120.735 28.424 120.543 28.664C120.351 28.888 120.087 29 119.751 29ZM120.519 20.432H126.255C126.623 20.416 126.975 20.272 127.311 20C127.663 19.712 127.943 19.328 128.151 18.848C128.375 18.368 128.487 17.824 128.487 17.216C128.487 16.448 128.255 15.808 127.791 15.296C127.343 14.768 126.807 14.504 126.183 14.504H120.567L120.831 13.88V20.936L120.519 20.432Z" fill="#E9E9E9"/>
<path d="M88.872 43.16C89.224 43.336 89.424 43.608 89.472 43.976C89.536 44.344 89.448 44.68 89.208 44.984C89.032 45.224 88.8 45.36 88.512 45.392C88.24 45.424 87.968 45.368 87.696 45.224C87.232 44.984 86.744 44.792 86.232 44.648C85.72 44.504 85.176 44.432 84.6 44.432C83.688 44.432 82.864 44.584 82.128 44.888C81.408 45.176 80.784 45.6 80.256 46.16C79.728 46.704 79.32 47.352 79.032 48.104C78.76 48.856 78.624 49.688 78.624 50.6C78.624 51.608 78.776 52.504 79.08 53.288C79.384 54.056 79.8 54.712 80.328 55.256C80.872 55.784 81.504 56.184 82.224 56.456C82.96 56.712 83.752 56.84 84.6 56.84C85.144 56.84 85.672 56.776 86.184 56.648C86.712 56.52 87.208 56.328 87.672 56.072C87.96 55.928 88.24 55.88 88.512 55.928C88.8 55.96 89.032 56.096 89.208 56.336C89.48 56.672 89.576 57.016 89.496 57.368C89.432 57.704 89.232 57.96 88.896 58.136C88.496 58.36 88.056 58.552 87.576 58.712C87.096 58.872 86.608 59 86.112 59.096C85.616 59.192 85.112 59.24 84.6 59.24C83.448 59.24 82.36 59.048 81.336 58.664C80.312 58.28 79.4 57.72 78.6 56.984C77.8 56.248 77.168 55.344 76.704 54.272C76.256 53.2 76.032 51.976 76.032 50.6C76.032 49.368 76.24 48.232 76.656 47.192C77.088 46.136 77.688 45.232 78.456 44.48C79.24 43.712 80.152 43.12 81.192 42.704C82.232 42.272 83.368 42.056 84.6 42.056C85.368 42.056 86.112 42.152 86.832 42.344C87.568 42.536 88.248 42.808 88.872 43.16ZM104.13 42.176C104.482 42.176 104.762 42.296 104.97 42.536C105.178 42.76 105.282 43.048 105.282 43.4V52.496C105.282 53.776 105.002 54.92 104.442 55.928C103.882 56.936 103.114 57.728 102.138 58.304C101.162 58.864 100.034 59.144 98.7538 59.144C97.4898 59.144 96.3618 58.864 95.3698 58.304C94.3938 57.728 93.6178 56.936 93.0418 55.928C92.4818 54.92 92.2018 53.776 92.2018 52.496V43.4C92.2018 43.048 92.3218 42.76 92.5618 42.536C92.8018 42.296 93.1138 42.176 93.4978 42.176C93.8018 42.176 94.0738 42.296 94.3138 42.536C94.5698 42.76 94.6978 43.048 94.6978 43.4V52.496C94.6978 53.344 94.8818 54.088 95.2498 54.728C95.6338 55.352 96.1378 55.848 96.7618 56.216C97.3858 56.568 98.0498 56.744 98.7538 56.744C99.5218 56.744 100.226 56.568 100.866 56.216C101.506 55.848 102.018 55.352 102.402 54.728C102.802 54.088 103.002 53.344 103.002 52.496V43.4C103.002 43.048 103.098 42.76 103.29 42.536C103.498 42.296 103.778 42.176 104.13 42.176ZM121.794 42.2C122.114 42.2 122.37 42.312 122.562 42.536C122.77 42.744 122.874 43.008 122.874 43.328V57.776C122.874 58.128 122.754 58.424 122.514 58.664C122.29 58.888 122.002 59 121.65 59C121.49 59 121.314 58.968 121.122 58.904C120.946 58.84 120.81 58.752 120.714 58.64L110.85 45.848L111.402 45.536V57.896C111.402 58.2 111.298 58.464 111.09 58.688C110.882 58.896 110.618 59 110.298 59C109.962 59 109.69 58.896 109.482 58.688C109.29 58.464 109.194 58.2 109.194 57.896V43.424C109.194 43.056 109.314 42.76 109.554 42.536C109.794 42.312 110.082 42.2 110.418 42.2C110.594 42.2 110.778 42.24 110.97 42.32C111.178 42.384 111.33 42.488 111.426 42.632L121.05 55.16L120.69 55.496V43.328C120.69 43.008 120.794 42.744 121.002 42.536C121.21 42.312 121.474 42.2 121.794 42.2ZM128.092 42.2C128.412 42.2 128.692 42.32 128.932 42.56C129.188 42.784 129.316 43.072 129.316 43.424V57.776C129.3 58.128 129.164 58.424 128.908 58.664C128.668 58.888 128.38 59 128.044 59C127.676 59 127.372 58.888 127.132 58.664C126.908 58.424 126.796 58.128 126.796 57.776V43.424C126.796 43.072 126.916 42.784 127.156 42.56C127.396 42.32 127.708 42.2 128.092 42.2ZM138.916 42.2C139.3 42.2 139.604 42.32 139.828 42.56C140.052 42.784 140.164 43.072 140.164 43.424V57.776C140.164 58.128 140.044 58.424 139.804 58.664C139.58 58.888 139.276 59 138.892 59C138.556 59 138.268 58.888 138.028 58.664C137.788 58.424 137.668 58.128 137.668 57.776V43.424C137.668 43.072 137.788 42.784 138.028 42.56C138.284 42.32 138.58 42.2 138.916 42.2ZM127.996 49.352H138.94L138.916 51.656H127.972L127.996 49.352ZM150.046 45.32L144.646 58.28C144.55 58.536 144.406 58.736 144.214 58.88C144.022 59.024 143.806 59.096 143.566 59.096C143.214 59.096 142.95 59 142.774 58.808C142.598 58.6 142.502 58.344 142.486 58.04C142.486 57.928 142.51 57.8 142.558 57.656L148.654 42.92C148.766 42.648 148.926 42.44 149.134 42.296C149.358 42.152 149.598 42.088 149.854 42.104C150.094 42.104 150.318 42.176 150.526 42.32C150.734 42.464 150.886 42.664 150.982 42.92L157.006 57.44C157.07 57.6 157.102 57.76 157.102 57.92C157.102 58.272 156.982 58.56 156.742 58.784C156.518 58.992 156.262 59.096 155.974 59.096C155.734 59.096 155.51 59.024 155.302 58.88C155.11 58.72 154.966 58.52 154.87 58.28L149.422 45.392L150.046 45.32ZM145.606 54.872L146.686 52.568H153.478L153.886 54.872H145.606Z" fill="#9505FC"/>
<path d="M63 65H33.5M6 65H33.5M33.5 65L34.5 6.5M34.5 6.5H6M34.5 6.5H63" stroke="#E9E9E9" stroke-width="11" stroke-linecap="round"/>
<path d="M63.5703 64.9841C63.5703 64.9841 33.5 61.5261 33.5 36.5C33.5 11.4739 63.5703 6.6709 63.5703 6.6709" stroke="#9505FC" stroke-width="12" stroke-linecap="round"/>
</svg>
